<svg xmlns="http://www.w3.org/2000/svg" viewBox="0 0 64 64" role="img" aria-label="Mosaicrisp">
  <rect width="64" height="64" rx="14" fill="#202124"/>
  <g fill="none" stroke="#fff" stroke-linecap="round" stroke-linejoin="round" stroke-width="3.6">
    <path d="M47 13h7v7"/>
    <path d="M54 44v7h-7"/>
  </g>
  <g>
    <rect x="12" y="12" width="8" height="8" rx="1.4" fill="#22bfd3"/>
    <rect x="22" y="12" width="8" height="8" rx="1.4" fill="#22bfd3"/>
    <rect x="32" y="12" width="8" height="8" rx="1.4" fill="#22bfd3"/>
    <rect x="12" y="22" width="8" height="8" rx="1.4" fill="#22bfd3"/>
    <rect x="22" y="22" width="8" height="8" rx="1.4" fill="#22bfd3"/>
    <rect x="12" y="32" width="8" height="8" rx="1.4" fill="#ff5a50"/>
    <rect x="22" y="32" width="8" height="8" rx="1.4" fill="#ff5a50"/>
    <rect x="32" y="32" width="8" height="8" rx="1.4" fill="#ff5a50"/>
    <rect x="12" y="42" width="8" height="8" rx="1.4" fill="#14765f"/>
    <rect x="22" y="42" width="8" height="8" rx="1.4" fill="#14765f"/>
    <rect x="38" y="23" width="5" height="5" rx="1" fill="#22bfd3"/>
    <rect x="46" y="31" width="4" height="4" rx="0.8" fill="#ff5a50"/>
    <rect x="37" y="43" width="4.5" height="4.5" rx="0.9" fill="#ffbf3d"/>
  </g>
  <path d="M43.6 26.2c1.4 5.7 3.8 8.1 9.5 9.5-5.7 1.4-8.1 3.8-9.5 9.5-1.4-5.7-3.8-8.1-9.5-9.5 5.7-1.4 8.1-3.8 9.5-9.5Z" fill="#fff"/>
</svg>
